<?xml version="1.0" encoding="UTF-8"?>
<svg width="12px" height="14px" viewBox="0 0 12 14" version="1.1" xmlns="http://www.w3.org/2000/svg" xmlns:xlink="http://www.w3.org/1999/xlink">
    <!-- Generator: Sketch 55.2 (78181) - https://sketchapp.com -->
    <title>4BF76146-DCF4-4C7C-BD69-A51646C75205</title>
    <desc>Created with Sketch.</desc>
    <g id="icon-图标" stroke="none" stroke-width="1" fill="none" fill-rule="evenodd" opacity="0.65">
        <g id="画板" transform="translate(-189.000000, -266.000000)" fill="#000000" fill-rule="nonzero">
            <g id="7.Icon/interface/43.location/outline" transform="translate(187.000000, 265.000000)">
                <path d="M13.353125,4.5171875 C13.059375,3.8390625 12.6390625,3.23125 12.1046875,2.709375 C11.5703125,2.1875 10.95,1.7796875 10.2578125,1.49375 C9.5421875,1.196875 8.7828125,1.046875 8,1.046875 C7.2171875,1.046875 6.4578125,1.196875 5.7421875,1.4921875 C5.05,1.778125 4.4296875,2.1875 3.8953125,2.7078125 C3.3609375,3.2296875 2.940625,3.8390625 2.646875,4.515625 C2.3421875,5.21875 2.1875,5.965625 2.1875,6.734375 C2.1875,7.8375 2.4515625,8.9359375 2.9703125,9.9953125 C3.3875,10.846875 3.9703125,11.6765625 4.7046875,12.465625 C5.959375,13.8125 7.275,14.6359375 7.6484375,14.85625 C7.75625,14.9203125 7.878125,14.9515625 7.9984375,14.9515625 C8.1203125,14.9515625 8.240625,14.9203125 8.3484375,14.85625 C8.721875,14.6359375 10.0375,13.8125 11.2921875,12.465625 C12.0265625,11.678125 12.609375,10.846875 13.0265625,9.9953125 C13.5484375,8.9375 13.8125,7.840625 13.8125,6.7359375 C13.8125,5.9671875 13.6578125,5.2203125 13.353125,4.5171875 Z M8,13.753125 C6.9703125,13.0984375 3.3125,10.50625 3.3125,6.7359375 C3.3125,5.51875 3.7984375,4.375 4.68125,3.5125 C5.5671875,2.6484375 6.7453125,2.171875 8,2.171875 C9.2546875,2.171875 10.4328125,2.6484375 11.31875,3.5140625 C12.2015625,4.375 12.6875,5.51875 12.6875,6.7359375 C12.6875,10.50625 9.0296875,13.0984375 8,13.753125 Z M8,4.109375 C6.48125,4.109375 5.25,5.340625 5.25,6.859375 C5.25,8.378125 6.48125,9.609375 8,9.609375 C9.51875,9.609375 10.75,8.378125 10.75,6.859375 C10.75,5.340625 9.51875,4.109375 8,4.109375 Z M9.2375,8.096875 C8.90625,8.4265625 8.4671875,8.609375 8,8.609375 C7.5328125,8.609375 7.09375,8.4265625 6.7625,8.096875 C6.4328125,7.765625 6.25,7.3265625 6.25,6.859375 C6.25,6.3921875 6.4328125,5.953125 6.7625,5.621875 C7.09375,5.290625 7.5328125,5.109375 8,5.109375 C8.4671875,5.109375 8.90625,5.290625 9.2375,5.621875 C9.56875,5.953125 9.75,6.3921875 9.75,6.859375 C9.75,7.3265625 9.56875,7.765625 9.2375,8.096875 Z" id="fill"></path>
            </g>
        </g>
    </g>
</svg>